<mxfile host="app.diagrams.net" modified="2023-11-24T04:10:01.505Z" agent="Mozilla/5.0 (Windows NT 10.0; Win64; x64) AppleWebKit/537.36 (KHTML, like Gecko) Chrome/119.0.0.0 Safari/537.36" etag="T4tgrNjGffNEMkr8UOoA" version="22.1.3" type="device" pages="3">
  <diagram id="C5RBs43oDa-KdzZeNtuy" name="bt1 ss11">
    <mxGraphModel dx="794" dy="456" grid="1" gridSize="10" guides="1" tooltips="1" connect="1" arrows="1" fold="1" page="1" pageScale="1" pageWidth="827" pageHeight="1169" math="0" shadow="0">
      <root>
        <mxCell id="WIyWlLk6GJQsqaUBKTNV-0" />
        <mxCell id="WIyWlLk6GJQsqaUBKTNV-1" parent="WIyWlLk6GJQsqaUBKTNV-0" />
        <mxCell id="DPSWD7fCwRCNjAREu64p-2" style="edgeStyle=orthogonalEdgeStyle;rounded=0;orthogonalLoop=1;jettySize=auto;html=1;exitX=0.5;exitY=1;exitDx=0;exitDy=0;entryX=0.5;entryY=0;entryDx=0;entryDy=0;" edge="1" parent="WIyWlLk6GJQsqaUBKTNV-1" source="DPSWD7fCwRCNjAREu64p-0" target="DPSWD7fCwRCNjAREu64p-1">
          <mxGeometry relative="1" as="geometry" />
        </mxCell>
        <mxCell id="DPSWD7fCwRCNjAREu64p-0" value="Start" style="ellipse;whiteSpace=wrap;html=1;" vertex="1" parent="WIyWlLk6GJQsqaUBKTNV-1">
          <mxGeometry x="20" y="340" width="120" height="80" as="geometry" />
        </mxCell>
        <mxCell id="DPSWD7fCwRCNjAREu64p-4" style="edgeStyle=orthogonalEdgeStyle;rounded=0;orthogonalLoop=1;jettySize=auto;html=1;exitX=0.5;exitY=1;exitDx=0;exitDy=0;" edge="1" parent="WIyWlLk6GJQsqaUBKTNV-1" source="DPSWD7fCwRCNjAREu64p-1" target="DPSWD7fCwRCNjAREu64p-5">
          <mxGeometry relative="1" as="geometry">
            <mxPoint x="80" y="580" as="targetPoint" />
          </mxGeometry>
        </mxCell>
        <mxCell id="DPSWD7fCwRCNjAREu64p-1" value="n" style="shape=parallelogram;perimeter=parallelogramPerimeter;whiteSpace=wrap;html=1;fixedSize=1;" vertex="1" parent="WIyWlLk6GJQsqaUBKTNV-1">
          <mxGeometry x="20" y="470" width="120" height="60" as="geometry" />
        </mxCell>
        <mxCell id="odDDH-HefxDCKtfhAqC4-1" style="edgeStyle=orthogonalEdgeStyle;rounded=0;orthogonalLoop=1;jettySize=auto;html=1;exitX=0.5;exitY=1;exitDx=0;exitDy=0;" edge="1" parent="WIyWlLk6GJQsqaUBKTNV-1" source="DPSWD7fCwRCNjAREu64p-5" target="odDDH-HefxDCKtfhAqC4-0">
          <mxGeometry relative="1" as="geometry" />
        </mxCell>
        <mxCell id="DPSWD7fCwRCNjAREu64p-5" value="MENU,choice" style="shape=parallelogram;perimeter=parallelogramPerimeter;whiteSpace=wrap;html=1;fixedSize=1;" vertex="1" parent="WIyWlLk6GJQsqaUBKTNV-1">
          <mxGeometry x="20" y="610" width="120" height="60" as="geometry" />
        </mxCell>
        <mxCell id="DPSWD7fCwRCNjAREu64p-9" style="edgeStyle=orthogonalEdgeStyle;rounded=0;orthogonalLoop=1;jettySize=auto;html=1;exitX=0.5;exitY=1;exitDx=0;exitDy=0;entryX=0.5;entryY=0;entryDx=0;entryDy=0;" edge="1" parent="WIyWlLk6GJQsqaUBKTNV-1" source="DPSWD7fCwRCNjAREu64p-7" target="DPSWD7fCwRCNjAREu64p-8">
          <mxGeometry relative="1" as="geometry" />
        </mxCell>
        <mxCell id="DPSWD7fCwRCNjAREu64p-7" value="i=0" style="rounded=0;whiteSpace=wrap;html=1;" vertex="1" parent="WIyWlLk6GJQsqaUBKTNV-1">
          <mxGeometry x="210" y="350" width="120" height="60" as="geometry" />
        </mxCell>
        <mxCell id="DPSWD7fCwRCNjAREu64p-17" style="edgeStyle=orthogonalEdgeStyle;rounded=0;orthogonalLoop=1;jettySize=auto;html=1;exitX=0.5;exitY=1;exitDx=0;exitDy=0;entryX=0.5;entryY=0;entryDx=0;entryDy=0;" edge="1" parent="WIyWlLk6GJQsqaUBKTNV-1" source="DPSWD7fCwRCNjAREu64p-8" target="DPSWD7fCwRCNjAREu64p-11">
          <mxGeometry relative="1" as="geometry" />
        </mxCell>
        <mxCell id="DPSWD7fCwRCNjAREu64p-8" value="i&amp;lt;n" style="rhombus;whiteSpace=wrap;html=1;" vertex="1" parent="WIyWlLk6GJQsqaUBKTNV-1">
          <mxGeometry x="230" y="460" width="80" height="80" as="geometry" />
        </mxCell>
        <mxCell id="DPSWD7fCwRCNjAREu64p-11" value="numbers[i]" style="rounded=0;whiteSpace=wrap;html=1;" vertex="1" parent="WIyWlLk6GJQsqaUBKTNV-1">
          <mxGeometry x="210" y="585" width="120" height="60" as="geometry" />
        </mxCell>
        <mxCell id="DPSWD7fCwRCNjAREu64p-18" value="Case 1:" style="text;html=1;align=center;verticalAlign=middle;resizable=0;points=[];autosize=1;strokeColor=none;fillColor=none;" vertex="1" parent="WIyWlLk6GJQsqaUBKTNV-1">
          <mxGeometry x="230" y="308" width="60" height="30" as="geometry" />
        </mxCell>
        <mxCell id="DPSWD7fCwRCNjAREu64p-21" style="edgeStyle=orthogonalEdgeStyle;rounded=0;orthogonalLoop=1;jettySize=auto;html=1;exitX=0.5;exitY=1;exitDx=0;exitDy=0;entryX=0.5;entryY=0;entryDx=0;entryDy=0;" edge="1" parent="WIyWlLk6GJQsqaUBKTNV-1" source="DPSWD7fCwRCNjAREu64p-19" target="DPSWD7fCwRCNjAREu64p-20">
          <mxGeometry relative="1" as="geometry" />
        </mxCell>
        <mxCell id="DPSWD7fCwRCNjAREu64p-19" value="i=1" style="rounded=0;whiteSpace=wrap;html=1;" vertex="1" parent="WIyWlLk6GJQsqaUBKTNV-1">
          <mxGeometry x="414" y="350" width="120" height="60" as="geometry" />
        </mxCell>
        <mxCell id="DPSWD7fCwRCNjAREu64p-23" style="edgeStyle=orthogonalEdgeStyle;rounded=0;orthogonalLoop=1;jettySize=auto;html=1;exitX=0.5;exitY=1;exitDx=0;exitDy=0;" edge="1" parent="WIyWlLk6GJQsqaUBKTNV-1" source="DPSWD7fCwRCNjAREu64p-20" target="DPSWD7fCwRCNjAREu64p-22">
          <mxGeometry relative="1" as="geometry" />
        </mxCell>
        <mxCell id="DPSWD7fCwRCNjAREu64p-39" value="True" style="edgeLabel;html=1;align=center;verticalAlign=middle;resizable=0;points=[];" vertex="1" connectable="0" parent="DPSWD7fCwRCNjAREu64p-23">
          <mxGeometry x="-0.1333" relative="1" as="geometry">
            <mxPoint as="offset" />
          </mxGeometry>
        </mxCell>
        <mxCell id="N8vYAe-l0pA9INZ4dSbg-5" style="edgeStyle=orthogonalEdgeStyle;rounded=0;orthogonalLoop=1;jettySize=auto;html=1;exitX=0;exitY=0.5;exitDx=0;exitDy=0;entryX=0.5;entryY=0;entryDx=0;entryDy=0;" edge="1" parent="WIyWlLk6GJQsqaUBKTNV-1" source="DPSWD7fCwRCNjAREu64p-20" target="N8vYAe-l0pA9INZ4dSbg-4">
          <mxGeometry relative="1" as="geometry" />
        </mxCell>
        <mxCell id="DPSWD7fCwRCNjAREu64p-20" value="i&amp;lt;n" style="rhombus;whiteSpace=wrap;html=1;" vertex="1" parent="WIyWlLk6GJQsqaUBKTNV-1">
          <mxGeometry x="434" y="460" width="80" height="80" as="geometry" />
        </mxCell>
        <mxCell id="DPSWD7fCwRCNjAREu64p-25" style="edgeStyle=orthogonalEdgeStyle;rounded=0;orthogonalLoop=1;jettySize=auto;html=1;exitX=1;exitY=0.5;exitDx=0;exitDy=0;" edge="1" parent="WIyWlLk6GJQsqaUBKTNV-1" source="DPSWD7fCwRCNjAREu64p-22" target="DPSWD7fCwRCNjAREu64p-24">
          <mxGeometry relative="1" as="geometry" />
        </mxCell>
        <mxCell id="DPSWD7fCwRCNjAREu64p-22" value="key=numbers[i]&lt;br&gt;j=i-1" style="rounded=0;whiteSpace=wrap;html=1;" vertex="1" parent="WIyWlLk6GJQsqaUBKTNV-1">
          <mxGeometry x="414" y="580" width="120" height="60" as="geometry" />
        </mxCell>
        <mxCell id="DPSWD7fCwRCNjAREu64p-28" style="edgeStyle=orthogonalEdgeStyle;rounded=0;orthogonalLoop=1;jettySize=auto;html=1;exitX=0;exitY=0.5;exitDx=0;exitDy=0;entryX=0.5;entryY=1;entryDx=0;entryDy=0;" edge="1" parent="WIyWlLk6GJQsqaUBKTNV-1" source="DPSWD7fCwRCNjAREu64p-24" target="DPSWD7fCwRCNjAREu64p-27">
          <mxGeometry relative="1" as="geometry" />
        </mxCell>
        <mxCell id="DPSWD7fCwRCNjAREu64p-33" value="false" style="edgeLabel;html=1;align=center;verticalAlign=middle;resizable=0;points=[];" vertex="1" connectable="0" parent="DPSWD7fCwRCNjAREu64p-28">
          <mxGeometry x="-0.3167" y="1" relative="1" as="geometry">
            <mxPoint as="offset" />
          </mxGeometry>
        </mxCell>
        <mxCell id="DPSWD7fCwRCNjAREu64p-35" style="edgeStyle=orthogonalEdgeStyle;rounded=0;orthogonalLoop=1;jettySize=auto;html=1;exitX=0.5;exitY=0;exitDx=0;exitDy=0;" edge="1" parent="WIyWlLk6GJQsqaUBKTNV-1" source="DPSWD7fCwRCNjAREu64p-24" target="DPSWD7fCwRCNjAREu64p-34">
          <mxGeometry relative="1" as="geometry" />
        </mxCell>
        <mxCell id="DPSWD7fCwRCNjAREu64p-49" value="True" style="edgeLabel;html=1;align=center;verticalAlign=middle;resizable=0;points=[];" vertex="1" connectable="0" parent="DPSWD7fCwRCNjAREu64p-35">
          <mxGeometry x="-0.15" y="-1" relative="1" as="geometry">
            <mxPoint as="offset" />
          </mxGeometry>
        </mxCell>
        <mxCell id="DPSWD7fCwRCNjAREu64p-24" value="j&amp;gt;=0&amp;amp;&amp;amp;numbers[i]&amp;lt;key" style="rhombus;whiteSpace=wrap;html=1;direction=south;" vertex="1" parent="WIyWlLk6GJQsqaUBKTNV-1">
          <mxGeometry x="620" y="550" width="110" height="120" as="geometry" />
        </mxCell>
        <mxCell id="DPSWD7fCwRCNjAREu64p-29" style="edgeStyle=orthogonalEdgeStyle;rounded=0;orthogonalLoop=1;jettySize=auto;html=1;exitX=0.5;exitY=0;exitDx=0;exitDy=0;" edge="1" parent="WIyWlLk6GJQsqaUBKTNV-1" source="DPSWD7fCwRCNjAREu64p-27">
          <mxGeometry relative="1" as="geometry">
            <mxPoint x="470" y="430" as="targetPoint" />
            <Array as="points">
              <mxPoint x="675" y="430" />
            </Array>
          </mxGeometry>
        </mxCell>
        <mxCell id="DPSWD7fCwRCNjAREu64p-27" value="numbers[j+1]=key" style="rounded=0;whiteSpace=wrap;html=1;" vertex="1" parent="WIyWlLk6GJQsqaUBKTNV-1">
          <mxGeometry x="615" y="460" width="120" height="50" as="geometry" />
        </mxCell>
        <mxCell id="DPSWD7fCwRCNjAREu64p-38" style="edgeStyle=orthogonalEdgeStyle;rounded=0;orthogonalLoop=1;jettySize=auto;html=1;exitX=0.5;exitY=1;exitDx=0;exitDy=0;" edge="1" parent="WIyWlLk6GJQsqaUBKTNV-1" source="DPSWD7fCwRCNjAREu64p-34">
          <mxGeometry relative="1" as="geometry">
            <mxPoint x="560" y="610" as="targetPoint" />
            <Array as="points">
              <mxPoint x="890" y="720" />
              <mxPoint x="561" y="720" />
            </Array>
          </mxGeometry>
        </mxCell>
        <mxCell id="DPSWD7fCwRCNjAREu64p-34" value="number[j+1]=numbers[i]&lt;br&gt;j=j-" style="rounded=0;whiteSpace=wrap;html=1;" vertex="1" parent="WIyWlLk6GJQsqaUBKTNV-1">
          <mxGeometry x="810" y="570" width="160" height="80" as="geometry" />
        </mxCell>
        <mxCell id="DPSWD7fCwRCNjAREu64p-50" value="Case 2:" style="text;html=1;align=center;verticalAlign=middle;resizable=0;points=[];autosize=1;strokeColor=none;fillColor=none;" vertex="1" parent="WIyWlLk6GJQsqaUBKTNV-1">
          <mxGeometry x="440" y="308" width="60" height="30" as="geometry" />
        </mxCell>
        <mxCell id="DPSWD7fCwRCNjAREu64p-53" style="edgeStyle=orthogonalEdgeStyle;rounded=0;orthogonalLoop=1;jettySize=auto;html=1;exitX=0.5;exitY=1;exitDx=0;exitDy=0;" edge="1" parent="WIyWlLk6GJQsqaUBKTNV-1" source="DPSWD7fCwRCNjAREu64p-51" target="DPSWD7fCwRCNjAREu64p-52">
          <mxGeometry relative="1" as="geometry" />
        </mxCell>
        <mxCell id="DPSWD7fCwRCNjAREu64p-51" value="i=0" style="rounded=0;whiteSpace=wrap;html=1;" vertex="1" parent="WIyWlLk6GJQsqaUBKTNV-1">
          <mxGeometry x="1080" y="420" width="120" height="60" as="geometry" />
        </mxCell>
        <mxCell id="DPSWD7fCwRCNjAREu64p-55" style="edgeStyle=orthogonalEdgeStyle;rounded=0;orthogonalLoop=1;jettySize=auto;html=1;exitX=0.5;exitY=1;exitDx=0;exitDy=0;" edge="1" parent="WIyWlLk6GJQsqaUBKTNV-1" source="DPSWD7fCwRCNjAREu64p-52" target="DPSWD7fCwRCNjAREu64p-54">
          <mxGeometry relative="1" as="geometry" />
        </mxCell>
        <mxCell id="N8vYAe-l0pA9INZ4dSbg-2" style="edgeStyle=orthogonalEdgeStyle;rounded=0;orthogonalLoop=1;jettySize=auto;html=1;exitX=0;exitY=0.5;exitDx=0;exitDy=0;entryX=0.5;entryY=0;entryDx=0;entryDy=0;" edge="1" parent="WIyWlLk6GJQsqaUBKTNV-1" source="DPSWD7fCwRCNjAREu64p-52" target="N8vYAe-l0pA9INZ4dSbg-1">
          <mxGeometry relative="1" as="geometry" />
        </mxCell>
        <mxCell id="N8vYAe-l0pA9INZ4dSbg-3" value="false" style="edgeLabel;html=1;align=center;verticalAlign=middle;resizable=0;points=[];" vertex="1" connectable="0" parent="N8vYAe-l0pA9INZ4dSbg-2">
          <mxGeometry x="-0.5867" y="-1" relative="1" as="geometry">
            <mxPoint as="offset" />
          </mxGeometry>
        </mxCell>
        <mxCell id="DPSWD7fCwRCNjAREu64p-52" value="i&amp;lt;n-1" style="rhombus;whiteSpace=wrap;html=1;" vertex="1" parent="WIyWlLk6GJQsqaUBKTNV-1">
          <mxGeometry x="1100" y="530" width="80" height="80" as="geometry" />
        </mxCell>
        <mxCell id="DPSWD7fCwRCNjAREu64p-57" style="edgeStyle=orthogonalEdgeStyle;rounded=0;orthogonalLoop=1;jettySize=auto;html=1;exitX=1;exitY=0.5;exitDx=0;exitDy=0;entryX=0;entryY=0.5;entryDx=0;entryDy=0;" edge="1" parent="WIyWlLk6GJQsqaUBKTNV-1" source="DPSWD7fCwRCNjAREu64p-54" target="DPSWD7fCwRCNjAREu64p-56">
          <mxGeometry relative="1" as="geometry" />
        </mxCell>
        <mxCell id="DPSWD7fCwRCNjAREu64p-54" value="j=i+1" style="rounded=0;whiteSpace=wrap;html=1;" vertex="1" parent="WIyWlLk6GJQsqaUBKTNV-1">
          <mxGeometry x="1080" y="645" width="120" height="60" as="geometry" />
        </mxCell>
        <mxCell id="DPSWD7fCwRCNjAREu64p-64" style="edgeStyle=orthogonalEdgeStyle;rounded=0;orthogonalLoop=1;jettySize=auto;html=1;exitX=0.5;exitY=0;exitDx=0;exitDy=0;" edge="1" parent="WIyWlLk6GJQsqaUBKTNV-1" source="DPSWD7fCwRCNjAREu64p-56">
          <mxGeometry relative="1" as="geometry">
            <mxPoint x="1140" y="500" as="targetPoint" />
            <Array as="points">
              <mxPoint x="1350" y="500" />
            </Array>
          </mxGeometry>
        </mxCell>
        <mxCell id="DPSWD7fCwRCNjAREu64p-65" value="false" style="edgeLabel;html=1;align=center;verticalAlign=middle;resizable=0;points=[];" vertex="1" connectable="0" parent="DPSWD7fCwRCNjAREu64p-64">
          <mxGeometry x="-0.028" relative="1" as="geometry">
            <mxPoint as="offset" />
          </mxGeometry>
        </mxCell>
        <mxCell id="DPSWD7fCwRCNjAREu64p-67" style="edgeStyle=orthogonalEdgeStyle;rounded=0;orthogonalLoop=1;jettySize=auto;html=1;exitX=1;exitY=0.5;exitDx=0;exitDy=0;" edge="1" parent="WIyWlLk6GJQsqaUBKTNV-1" source="DPSWD7fCwRCNjAREu64p-56" target="DPSWD7fCwRCNjAREu64p-58">
          <mxGeometry relative="1" as="geometry" />
        </mxCell>
        <mxCell id="DPSWD7fCwRCNjAREu64p-68" value="True" style="edgeLabel;html=1;align=center;verticalAlign=middle;resizable=0;points=[];" vertex="1" connectable="0" parent="DPSWD7fCwRCNjAREu64p-67">
          <mxGeometry x="0.0667" y="2" relative="1" as="geometry">
            <mxPoint as="offset" />
          </mxGeometry>
        </mxCell>
        <mxCell id="DPSWD7fCwRCNjAREu64p-56" value="j&amp;lt;n" style="rhombus;whiteSpace=wrap;html=1;" vertex="1" parent="WIyWlLk6GJQsqaUBKTNV-1">
          <mxGeometry x="1310" y="635" width="80" height="80" as="geometry" />
        </mxCell>
        <mxCell id="DPSWD7fCwRCNjAREu64p-62" style="edgeStyle=orthogonalEdgeStyle;rounded=0;orthogonalLoop=1;jettySize=auto;html=1;exitX=0.5;exitY=1;exitDx=0;exitDy=0;entryX=0.5;entryY=0;entryDx=0;entryDy=0;" edge="1" parent="WIyWlLk6GJQsqaUBKTNV-1" source="DPSWD7fCwRCNjAREu64p-58" target="DPSWD7fCwRCNjAREu64p-61">
          <mxGeometry relative="1" as="geometry" />
        </mxCell>
        <mxCell id="DPSWD7fCwRCNjAREu64p-69" value="True" style="edgeLabel;html=1;align=center;verticalAlign=middle;resizable=0;points=[];" vertex="1" connectable="0" parent="DPSWD7fCwRCNjAREu64p-62">
          <mxGeometry x="-0.2" relative="1" as="geometry">
            <mxPoint as="offset" />
          </mxGeometry>
        </mxCell>
        <mxCell id="DPSWD7fCwRCNjAREu64p-58" value="numbers[i]&amp;gt;numbers[j]" style="rhombus;whiteSpace=wrap;html=1;" vertex="1" parent="WIyWlLk6GJQsqaUBKTNV-1">
          <mxGeometry x="1490" y="615" width="170" height="120" as="geometry" />
        </mxCell>
        <mxCell id="DPSWD7fCwRCNjAREu64p-63" style="edgeStyle=orthogonalEdgeStyle;rounded=0;orthogonalLoop=1;jettySize=auto;html=1;exitX=0;exitY=0.5;exitDx=0;exitDy=0;" edge="1" parent="WIyWlLk6GJQsqaUBKTNV-1" source="DPSWD7fCwRCNjAREu64p-61">
          <mxGeometry relative="1" as="geometry">
            <mxPoint x="1250" y="680" as="targetPoint" />
          </mxGeometry>
        </mxCell>
        <mxCell id="DPSWD7fCwRCNjAREu64p-61" value="temp=numbers[i]&lt;br&gt;numbers[i]=numbers[j]&lt;br&gt;numbers[j]=temp" style="rounded=0;whiteSpace=wrap;html=1;" vertex="1" parent="WIyWlLk6GJQsqaUBKTNV-1">
          <mxGeometry x="1515" y="790" width="120" height="60" as="geometry" />
        </mxCell>
        <mxCell id="DPSWD7fCwRCNjAREu64p-73" value="Case 3:" style="text;html=1;align=center;verticalAlign=middle;resizable=0;points=[];autosize=1;strokeColor=none;fillColor=none;" vertex="1" parent="WIyWlLk6GJQsqaUBKTNV-1">
          <mxGeometry x="1105" y="370" width="60" height="30" as="geometry" />
        </mxCell>
        <mxCell id="DPSWD7fCwRCNjAREu64p-76" style="edgeStyle=orthogonalEdgeStyle;rounded=0;orthogonalLoop=1;jettySize=auto;html=1;exitX=0.5;exitY=1;exitDx=0;exitDy=0;" edge="1" parent="WIyWlLk6GJQsqaUBKTNV-1" source="DPSWD7fCwRCNjAREu64p-74" target="DPSWD7fCwRCNjAREu64p-75">
          <mxGeometry relative="1" as="geometry" />
        </mxCell>
        <mxCell id="DPSWD7fCwRCNjAREu64p-74" value="i=0" style="rounded=0;whiteSpace=wrap;html=1;" vertex="1" parent="WIyWlLk6GJQsqaUBKTNV-1">
          <mxGeometry x="1870" y="620" width="120" height="60" as="geometry" />
        </mxCell>
        <mxCell id="DPSWD7fCwRCNjAREu64p-78" style="edgeStyle=orthogonalEdgeStyle;rounded=0;orthogonalLoop=1;jettySize=auto;html=1;exitX=0.5;exitY=1;exitDx=0;exitDy=0;entryX=0.5;entryY=0;entryDx=0;entryDy=0;" edge="1" parent="WIyWlLk6GJQsqaUBKTNV-1" source="DPSWD7fCwRCNjAREu64p-75" target="DPSWD7fCwRCNjAREu64p-77">
          <mxGeometry relative="1" as="geometry" />
        </mxCell>
        <mxCell id="DPSWD7fCwRCNjAREu64p-95" value="True" style="edgeLabel;html=1;align=center;verticalAlign=middle;resizable=0;points=[];" vertex="1" connectable="0" parent="DPSWD7fCwRCNjAREu64p-78">
          <mxGeometry x="-0.1111" relative="1" as="geometry">
            <mxPoint as="offset" />
          </mxGeometry>
        </mxCell>
        <mxCell id="N8vYAe-l0pA9INZ4dSbg-7" style="edgeStyle=orthogonalEdgeStyle;rounded=0;orthogonalLoop=1;jettySize=auto;html=1;exitX=0;exitY=0.5;exitDx=0;exitDy=0;entryX=0.5;entryY=0;entryDx=0;entryDy=0;" edge="1" parent="WIyWlLk6GJQsqaUBKTNV-1" source="DPSWD7fCwRCNjAREu64p-75" target="N8vYAe-l0pA9INZ4dSbg-6">
          <mxGeometry relative="1" as="geometry" />
        </mxCell>
        <mxCell id="N8vYAe-l0pA9INZ4dSbg-8" value="false" style="edgeLabel;html=1;align=center;verticalAlign=middle;resizable=0;points=[];" vertex="1" connectable="0" parent="N8vYAe-l0pA9INZ4dSbg-7">
          <mxGeometry x="-0.4453" y="-2" relative="1" as="geometry">
            <mxPoint as="offset" />
          </mxGeometry>
        </mxCell>
        <mxCell id="DPSWD7fCwRCNjAREu64p-75" value="i&amp;lt;n-1" style="rhombus;whiteSpace=wrap;html=1;" vertex="1" parent="WIyWlLk6GJQsqaUBKTNV-1">
          <mxGeometry x="1890" y="750" width="80" height="80" as="geometry" />
        </mxCell>
        <mxCell id="DPSWD7fCwRCNjAREu64p-80" style="edgeStyle=orthogonalEdgeStyle;rounded=0;orthogonalLoop=1;jettySize=auto;html=1;exitX=1;exitY=0.5;exitDx=0;exitDy=0;" edge="1" parent="WIyWlLk6GJQsqaUBKTNV-1" source="DPSWD7fCwRCNjAREu64p-77" target="DPSWD7fCwRCNjAREu64p-79">
          <mxGeometry relative="1" as="geometry" />
        </mxCell>
        <mxCell id="DPSWD7fCwRCNjAREu64p-77" value="j=0" style="rounded=0;whiteSpace=wrap;html=1;" vertex="1" parent="WIyWlLk6GJQsqaUBKTNV-1">
          <mxGeometry x="1870" y="890" width="120" height="60" as="geometry" />
        </mxCell>
        <mxCell id="DPSWD7fCwRCNjAREu64p-82" value="true" style="edgeStyle=orthogonalEdgeStyle;rounded=0;orthogonalLoop=1;jettySize=auto;html=1;exitX=1;exitY=0.5;exitDx=0;exitDy=0;" edge="1" parent="WIyWlLk6GJQsqaUBKTNV-1" source="DPSWD7fCwRCNjAREu64p-79" target="DPSWD7fCwRCNjAREu64p-81">
          <mxGeometry relative="1" as="geometry" />
        </mxCell>
        <mxCell id="DPSWD7fCwRCNjAREu64p-93" style="edgeStyle=orthogonalEdgeStyle;rounded=0;orthogonalLoop=1;jettySize=auto;html=1;exitX=0.5;exitY=0;exitDx=0;exitDy=0;entryX=1;entryY=0.5;entryDx=0;entryDy=0;" edge="1" parent="WIyWlLk6GJQsqaUBKTNV-1" source="DPSWD7fCwRCNjAREu64p-79" target="DPSWD7fCwRCNjAREu64p-75">
          <mxGeometry relative="1" as="geometry">
            <mxPoint x="1980" y="770" as="targetPoint" />
            <Array as="points">
              <mxPoint x="2120" y="790" />
            </Array>
          </mxGeometry>
        </mxCell>
        <mxCell id="DPSWD7fCwRCNjAREu64p-94" value="false" style="edgeLabel;html=1;align=center;verticalAlign=middle;resizable=0;points=[];" vertex="1" connectable="0" parent="DPSWD7fCwRCNjAREu64p-93">
          <mxGeometry x="0.1417" y="-1" relative="1" as="geometry">
            <mxPoint as="offset" />
          </mxGeometry>
        </mxCell>
        <mxCell id="DPSWD7fCwRCNjAREu64p-79" value="j&amp;lt;n-i-1" style="rhombus;whiteSpace=wrap;html=1;" vertex="1" parent="WIyWlLk6GJQsqaUBKTNV-1">
          <mxGeometry x="2080" y="880" width="80" height="80" as="geometry" />
        </mxCell>
        <mxCell id="DPSWD7fCwRCNjAREu64p-91" style="edgeStyle=orthogonalEdgeStyle;rounded=0;orthogonalLoop=1;jettySize=auto;html=1;exitX=0.5;exitY=1;exitDx=0;exitDy=0;" edge="1" parent="WIyWlLk6GJQsqaUBKTNV-1" source="DPSWD7fCwRCNjAREu64p-81" target="DPSWD7fCwRCNjAREu64p-90">
          <mxGeometry relative="1" as="geometry" />
        </mxCell>
        <mxCell id="DPSWD7fCwRCNjAREu64p-96" value="True" style="edgeLabel;html=1;align=center;verticalAlign=middle;resizable=0;points=[];" vertex="1" connectable="0" parent="DPSWD7fCwRCNjAREu64p-91">
          <mxGeometry x="-0.0952" relative="1" as="geometry">
            <mxPoint as="offset" />
          </mxGeometry>
        </mxCell>
        <mxCell id="DPSWD7fCwRCNjAREu64p-81" value="numbers[i]&amp;lt;numbers[j+1]" style="rhombus;whiteSpace=wrap;html=1;" vertex="1" parent="WIyWlLk6GJQsqaUBKTNV-1">
          <mxGeometry x="2240" y="870" width="140" height="100" as="geometry" />
        </mxCell>
        <mxCell id="DPSWD7fCwRCNjAREu64p-90" value="temp=numbers[j]&lt;br&gt;numbers[j]=numbers[j+1]&lt;br&gt;numbers[j+1]=temp" style="rounded=0;whiteSpace=wrap;html=1;" vertex="1" parent="WIyWlLk6GJQsqaUBKTNV-1">
          <mxGeometry x="2240" y="1040" width="140" height="80" as="geometry" />
        </mxCell>
        <mxCell id="N8vYAe-l0pA9INZ4dSbg-0" value="Case 4:" style="text;html=1;align=center;verticalAlign=middle;resizable=0;points=[];autosize=1;strokeColor=none;fillColor=none;" vertex="1" parent="WIyWlLk6GJQsqaUBKTNV-1">
          <mxGeometry x="1895" y="570" width="60" height="30" as="geometry" />
        </mxCell>
        <mxCell id="N8vYAe-l0pA9INZ4dSbg-1" value="choice" style="shape=parallelogram;perimeter=parallelogramPerimeter;whiteSpace=wrap;html=1;fixedSize=1;" vertex="1" parent="WIyWlLk6GJQsqaUBKTNV-1">
          <mxGeometry x="930" y="760" width="120" height="60" as="geometry" />
        </mxCell>
        <mxCell id="N8vYAe-l0pA9INZ4dSbg-4" value="choice" style="shape=parallelogram;perimeter=parallelogramPerimeter;whiteSpace=wrap;html=1;fixedSize=1;" vertex="1" parent="WIyWlLk6GJQsqaUBKTNV-1">
          <mxGeometry x="314" y="715" width="120" height="60" as="geometry" />
        </mxCell>
        <mxCell id="N8vYAe-l0pA9INZ4dSbg-6" value="choice" style="shape=parallelogram;perimeter=parallelogramPerimeter;whiteSpace=wrap;html=1;fixedSize=1;" vertex="1" parent="WIyWlLk6GJQsqaUBKTNV-1">
          <mxGeometry x="1690" y="900" width="120" height="60" as="geometry" />
        </mxCell>
        <mxCell id="odDDH-HefxDCKtfhAqC4-4" style="edgeStyle=orthogonalEdgeStyle;rounded=0;orthogonalLoop=1;jettySize=auto;html=1;exitX=0.5;exitY=1;exitDx=0;exitDy=0;" edge="1" parent="WIyWlLk6GJQsqaUBKTNV-1" source="odDDH-HefxDCKtfhAqC4-0" target="odDDH-HefxDCKtfhAqC4-3">
          <mxGeometry relative="1" as="geometry" />
        </mxCell>
        <mxCell id="odDDH-HefxDCKtfhAqC4-0" value="Case1:&lt;br&gt;case2:&lt;br&gt;case3:&lt;br&gt;case4:" style="rounded=0;whiteSpace=wrap;html=1;" vertex="1" parent="WIyWlLk6GJQsqaUBKTNV-1">
          <mxGeometry x="20" y="750" width="120" height="60" as="geometry" />
        </mxCell>
        <mxCell id="odDDH-HefxDCKtfhAqC4-3" value="end" style="ellipse;whiteSpace=wrap;html=1;" vertex="1" parent="WIyWlLk6GJQsqaUBKTNV-1">
          <mxGeometry x="20" y="880" width="120" height="80" as="geometry" />
        </mxCell>
      </root>
    </mxGraphModel>
  </diagram>
  <diagram id="OY1cI8Dj9aXQ-2t7V92C" name="bt2 ss11">
    <mxGraphModel dx="794" dy="1625" grid="1" gridSize="10" guides="1" tooltips="1" connect="1" arrows="1" fold="1" page="1" pageScale="1" pageWidth="827" pageHeight="1169" math="0" shadow="0">
      <root>
        <mxCell id="0" />
        <mxCell id="1" parent="0" />
        <mxCell id="1EEePNdC5SY1H90uYSZu-1" style="edgeStyle=orthogonalEdgeStyle;rounded=0;orthogonalLoop=1;jettySize=auto;html=1;exitX=0.5;exitY=1;exitDx=0;exitDy=0;entryX=0.5;entryY=0;entryDx=0;entryDy=0;" edge="1" parent="1" source="8UjB5DiITsZHZou2ssQr-2" target="8UjB5DiITsZHZou2ssQr-3">
          <mxGeometry relative="1" as="geometry" />
        </mxCell>
        <mxCell id="8UjB5DiITsZHZou2ssQr-2" value="start" style="ellipse;whiteSpace=wrap;html=1;" vertex="1" parent="1">
          <mxGeometry x="60" y="-20" width="120" height="80" as="geometry" />
        </mxCell>
        <mxCell id="IfBIMoq1sBY0QwA49_b--1" style="edgeStyle=orthogonalEdgeStyle;rounded=0;orthogonalLoop=1;jettySize=auto;html=1;exitX=0.5;exitY=1;exitDx=0;exitDy=0;" edge="1" parent="1" source="8UjB5DiITsZHZou2ssQr-3" target="Gz0gUX1bs0WcuOD6IEtE-1">
          <mxGeometry relative="1" as="geometry" />
        </mxCell>
        <mxCell id="8UjB5DiITsZHZou2ssQr-3" value="n,m" style="shape=parallelogram;perimeter=parallelogramPerimeter;whiteSpace=wrap;html=1;fixedSize=1;" vertex="1" parent="1">
          <mxGeometry x="60" y="100" width="120" height="60" as="geometry" />
        </mxCell>
        <mxCell id="r5tht3dNbgFcJSX3tWin-54" style="edgeStyle=orthogonalEdgeStyle;rounded=0;orthogonalLoop=1;jettySize=auto;html=1;exitX=0.5;exitY=1;exitDx=0;exitDy=0;" edge="1" parent="1" source="Gz0gUX1bs0WcuOD6IEtE-1" target="r5tht3dNbgFcJSX3tWin-53">
          <mxGeometry relative="1" as="geometry" />
        </mxCell>
        <mxCell id="Gz0gUX1bs0WcuOD6IEtE-1" value="MENU,choice" style="shape=parallelogram;perimeter=parallelogramPerimeter;whiteSpace=wrap;html=1;fixedSize=1;" vertex="1" parent="1">
          <mxGeometry x="60" y="230" width="120" height="60" as="geometry" />
        </mxCell>
        <mxCell id="r5tht3dNbgFcJSX3tWin-2" style="edgeStyle=orthogonalEdgeStyle;rounded=0;orthogonalLoop=1;jettySize=auto;html=1;exitX=0.5;exitY=1;exitDx=0;exitDy=0;entryX=0.5;entryY=0;entryDx=0;entryDy=0;" edge="1" parent="1" source="TdZrclQwvmsK3QU6wtBd-1" target="r5tht3dNbgFcJSX3tWin-1">
          <mxGeometry relative="1" as="geometry" />
        </mxCell>
        <mxCell id="TdZrclQwvmsK3QU6wtBd-1" value="i=0;j=0" style="rounded=0;whiteSpace=wrap;html=1;" vertex="1" parent="1">
          <mxGeometry x="294" width="120" height="60" as="geometry" />
        </mxCell>
        <mxCell id="r5tht3dNbgFcJSX3tWin-4" style="edgeStyle=orthogonalEdgeStyle;rounded=0;orthogonalLoop=1;jettySize=auto;html=1;exitX=0.5;exitY=1;exitDx=0;exitDy=0;entryX=0.5;entryY=0;entryDx=0;entryDy=0;" edge="1" parent="1" source="r5tht3dNbgFcJSX3tWin-1" target="r5tht3dNbgFcJSX3tWin-3">
          <mxGeometry relative="1" as="geometry" />
        </mxCell>
        <mxCell id="r5tht3dNbgFcJSX3tWin-1" value="i&amp;lt;n,j&amp;lt;m" style="rhombus;whiteSpace=wrap;html=1;" vertex="1" parent="1">
          <mxGeometry x="314" y="120" width="80" height="80" as="geometry" />
        </mxCell>
        <mxCell id="r5tht3dNbgFcJSX3tWin-3" value="numbers[i][j]" style="rounded=0;whiteSpace=wrap;html=1;" vertex="1" parent="1">
          <mxGeometry x="294" y="270" width="120" height="60" as="geometry" />
        </mxCell>
        <mxCell id="r5tht3dNbgFcJSX3tWin-5" value="Case 1:" style="text;html=1;align=center;verticalAlign=middle;resizable=0;points=[];autosize=1;strokeColor=none;fillColor=none;" vertex="1" parent="1">
          <mxGeometry x="334" y="-50" width="60" height="30" as="geometry" />
        </mxCell>
        <mxCell id="r5tht3dNbgFcJSX3tWin-8" style="edgeStyle=orthogonalEdgeStyle;rounded=0;orthogonalLoop=1;jettySize=auto;html=1;exitX=0.5;exitY=1;exitDx=0;exitDy=0;" edge="1" parent="1" source="r5tht3dNbgFcJSX3tWin-6" target="r5tht3dNbgFcJSX3tWin-7">
          <mxGeometry relative="1" as="geometry" />
        </mxCell>
        <mxCell id="r5tht3dNbgFcJSX3tWin-6" value="i=0;j=1" style="rounded=0;whiteSpace=wrap;html=1;" vertex="1" parent="1">
          <mxGeometry x="570" width="120" height="60" as="geometry" />
        </mxCell>
        <mxCell id="r5tht3dNbgFcJSX3tWin-18" style="edgeStyle=orthogonalEdgeStyle;rounded=0;orthogonalLoop=1;jettySize=auto;html=1;exitX=0.5;exitY=1;exitDx=0;exitDy=0;entryX=0.5;entryY=0;entryDx=0;entryDy=0;" edge="1" parent="1" source="r5tht3dNbgFcJSX3tWin-7" target="r5tht3dNbgFcJSX3tWin-9">
          <mxGeometry relative="1" as="geometry" />
        </mxCell>
        <mxCell id="r5tht3dNbgFcJSX3tWin-19" value="True" style="edgeLabel;html=1;align=center;verticalAlign=middle;resizable=0;points=[];" vertex="1" connectable="0" parent="r5tht3dNbgFcJSX3tWin-18">
          <mxGeometry x="-0.1444" y="1" relative="1" as="geometry">
            <mxPoint as="offset" />
          </mxGeometry>
        </mxCell>
        <mxCell id="r5tht3dNbgFcJSX3tWin-27" style="edgeStyle=orthogonalEdgeStyle;rounded=0;orthogonalLoop=1;jettySize=auto;html=1;exitX=0;exitY=0.5;exitDx=0;exitDy=0;" edge="1" parent="1" source="r5tht3dNbgFcJSX3tWin-7" target="r5tht3dNbgFcJSX3tWin-25">
          <mxGeometry relative="1" as="geometry" />
        </mxCell>
        <mxCell id="r5tht3dNbgFcJSX3tWin-28" value="false" style="edgeLabel;html=1;align=center;verticalAlign=middle;resizable=0;points=[];" vertex="1" connectable="0" parent="r5tht3dNbgFcJSX3tWin-27">
          <mxGeometry x="-0.0771" y="-1" relative="1" as="geometry">
            <mxPoint as="offset" />
          </mxGeometry>
        </mxCell>
        <mxCell id="r5tht3dNbgFcJSX3tWin-7" value="i&amp;lt;n;j&amp;lt;m" style="rhombus;whiteSpace=wrap;html=1;" vertex="1" parent="1">
          <mxGeometry x="590" y="120" width="80" height="80" as="geometry" />
        </mxCell>
        <mxCell id="r5tht3dNbgFcJSX3tWin-12" style="edgeStyle=orthogonalEdgeStyle;rounded=0;orthogonalLoop=1;jettySize=auto;html=1;exitX=1;exitY=0.5;exitDx=0;exitDy=0;entryX=0;entryY=0.5;entryDx=0;entryDy=0;" edge="1" parent="1" source="r5tht3dNbgFcJSX3tWin-9" target="r5tht3dNbgFcJSX3tWin-11">
          <mxGeometry relative="1" as="geometry" />
        </mxCell>
        <mxCell id="r5tht3dNbgFcJSX3tWin-9" value="key=numbers[i][j]&lt;br&gt;k=j-1" style="rounded=0;whiteSpace=wrap;html=1;" vertex="1" parent="1">
          <mxGeometry x="570" y="260" width="120" height="60" as="geometry" />
        </mxCell>
        <mxCell id="r5tht3dNbgFcJSX3tWin-14" style="edgeStyle=orthogonalEdgeStyle;rounded=0;orthogonalLoop=1;jettySize=auto;html=1;exitX=1;exitY=0.5;exitDx=0;exitDy=0;" edge="1" parent="1" source="r5tht3dNbgFcJSX3tWin-11" target="r5tht3dNbgFcJSX3tWin-13">
          <mxGeometry relative="1" as="geometry" />
        </mxCell>
        <mxCell id="r5tht3dNbgFcJSX3tWin-16" value="True" style="edgeLabel;html=1;align=center;verticalAlign=middle;resizable=0;points=[];" vertex="1" connectable="0" parent="r5tht3dNbgFcJSX3tWin-14">
          <mxGeometry x="-0.2667" relative="1" as="geometry">
            <mxPoint as="offset" />
          </mxGeometry>
        </mxCell>
        <mxCell id="r5tht3dNbgFcJSX3tWin-21" style="edgeStyle=orthogonalEdgeStyle;rounded=0;orthogonalLoop=1;jettySize=auto;html=1;exitX=0.5;exitY=0;exitDx=0;exitDy=0;entryX=0.5;entryY=1;entryDx=0;entryDy=0;" edge="1" parent="1" source="r5tht3dNbgFcJSX3tWin-11" target="r5tht3dNbgFcJSX3tWin-20">
          <mxGeometry relative="1" as="geometry" />
        </mxCell>
        <mxCell id="r5tht3dNbgFcJSX3tWin-22" value="false" style="edgeLabel;html=1;align=center;verticalAlign=middle;resizable=0;points=[];" vertex="1" connectable="0" parent="r5tht3dNbgFcJSX3tWin-21">
          <mxGeometry x="-0.0044" y="-1" relative="1" as="geometry">
            <mxPoint as="offset" />
          </mxGeometry>
        </mxCell>
        <mxCell id="r5tht3dNbgFcJSX3tWin-11" value="k&amp;gt;=0&amp;amp;&amp;amp;key&amp;lt;numbers[i][k]" style="rhombus;whiteSpace=wrap;html=1;" vertex="1" parent="1">
          <mxGeometry x="800" y="215" width="140" height="150" as="geometry" />
        </mxCell>
        <mxCell id="r5tht3dNbgFcJSX3tWin-15" style="edgeStyle=orthogonalEdgeStyle;rounded=0;orthogonalLoop=1;jettySize=auto;html=1;exitX=0.5;exitY=1;exitDx=0;exitDy=0;" edge="1" parent="1" source="r5tht3dNbgFcJSX3tWin-13">
          <mxGeometry relative="1" as="geometry">
            <mxPoint x="720" y="291.333251953125" as="targetPoint" />
            <Array as="points">
              <mxPoint x="1115" y="400" />
              <mxPoint x="720" y="400" />
            </Array>
          </mxGeometry>
        </mxCell>
        <mxCell id="r5tht3dNbgFcJSX3tWin-13" value="numbers[i][k+1]=numbers[i[[k]&lt;br&gt;k=k-1" style="rounded=0;whiteSpace=wrap;html=1;" vertex="1" parent="1">
          <mxGeometry x="1030" y="260" width="170" height="60" as="geometry" />
        </mxCell>
        <mxCell id="r5tht3dNbgFcJSX3tWin-26" style="edgeStyle=orthogonalEdgeStyle;rounded=0;orthogonalLoop=1;jettySize=auto;html=1;exitX=0;exitY=0.5;exitDx=0;exitDy=0;" edge="1" parent="1" source="r5tht3dNbgFcJSX3tWin-20">
          <mxGeometry relative="1" as="geometry">
            <mxPoint x="630" y="100" as="targetPoint" />
          </mxGeometry>
        </mxCell>
        <mxCell id="r5tht3dNbgFcJSX3tWin-20" value="numbers[i][k+1]=key" style="rounded=0;whiteSpace=wrap;html=1;" vertex="1" parent="1">
          <mxGeometry x="810" y="70" width="120" height="60" as="geometry" />
        </mxCell>
        <mxCell id="r5tht3dNbgFcJSX3tWin-25" value="choice" style="shape=parallelogram;perimeter=parallelogramPerimeter;whiteSpace=wrap;html=1;fixedSize=1;" vertex="1" parent="1">
          <mxGeometry x="470" y="420" width="120" height="60" as="geometry" />
        </mxCell>
        <mxCell id="r5tht3dNbgFcJSX3tWin-29" value="Case 2:" style="text;html=1;align=center;verticalAlign=middle;resizable=0;points=[];autosize=1;strokeColor=none;fillColor=none;" vertex="1" parent="1">
          <mxGeometry x="590" y="-62" width="60" height="30" as="geometry" />
        </mxCell>
        <mxCell id="r5tht3dNbgFcJSX3tWin-32" style="edgeStyle=orthogonalEdgeStyle;rounded=0;orthogonalLoop=1;jettySize=auto;html=1;exitX=0.5;exitY=1;exitDx=0;exitDy=0;" edge="1" parent="1" source="r5tht3dNbgFcJSX3tWin-30" target="r5tht3dNbgFcJSX3tWin-31">
          <mxGeometry relative="1" as="geometry" />
        </mxCell>
        <mxCell id="r5tht3dNbgFcJSX3tWin-30" value="j=0;i=1" style="rounded=0;whiteSpace=wrap;html=1;" vertex="1" parent="1">
          <mxGeometry x="1370" width="120" height="60" as="geometry" />
        </mxCell>
        <mxCell id="r5tht3dNbgFcJSX3tWin-34" style="edgeStyle=orthogonalEdgeStyle;rounded=0;orthogonalLoop=1;jettySize=auto;html=1;exitX=0.5;exitY=1;exitDx=0;exitDy=0;" edge="1" parent="1" source="r5tht3dNbgFcJSX3tWin-31" target="r5tht3dNbgFcJSX3tWin-33">
          <mxGeometry relative="1" as="geometry" />
        </mxCell>
        <mxCell id="r5tht3dNbgFcJSX3tWin-36" value="True" style="edgeLabel;html=1;align=center;verticalAlign=middle;resizable=0;points=[];" vertex="1" connectable="0" parent="r5tht3dNbgFcJSX3tWin-34">
          <mxGeometry x="-0.0583" y="-1" relative="1" as="geometry">
            <mxPoint as="offset" />
          </mxGeometry>
        </mxCell>
        <mxCell id="r5tht3dNbgFcJSX3tWin-48" style="edgeStyle=orthogonalEdgeStyle;rounded=0;orthogonalLoop=1;jettySize=auto;html=1;exitX=0;exitY=0.5;exitDx=0;exitDy=0;entryX=0.5;entryY=0;entryDx=0;entryDy=0;" edge="1" parent="1" source="r5tht3dNbgFcJSX3tWin-31" target="r5tht3dNbgFcJSX3tWin-47">
          <mxGeometry relative="1" as="geometry" />
        </mxCell>
        <mxCell id="r5tht3dNbgFcJSX3tWin-49" value="false" style="edgeLabel;html=1;align=center;verticalAlign=middle;resizable=0;points=[];" vertex="1" connectable="0" parent="r5tht3dNbgFcJSX3tWin-48">
          <mxGeometry x="-0.5699" y="-2" relative="1" as="geometry">
            <mxPoint as="offset" />
          </mxGeometry>
        </mxCell>
        <mxCell id="r5tht3dNbgFcJSX3tWin-31" value="j&amp;lt;m;i&amp;lt;n" style="rhombus;whiteSpace=wrap;html=1;" vertex="1" parent="1">
          <mxGeometry x="1390" y="130" width="80" height="80" as="geometry" />
        </mxCell>
        <mxCell id="r5tht3dNbgFcJSX3tWin-38" style="edgeStyle=orthogonalEdgeStyle;rounded=0;orthogonalLoop=1;jettySize=auto;html=1;exitX=1;exitY=0.5;exitDx=0;exitDy=0;entryX=0;entryY=0.5;entryDx=0;entryDy=0;" edge="1" parent="1" source="r5tht3dNbgFcJSX3tWin-33" target="r5tht3dNbgFcJSX3tWin-37">
          <mxGeometry relative="1" as="geometry" />
        </mxCell>
        <mxCell id="r5tht3dNbgFcJSX3tWin-33" value="key=numbers[i][j]&lt;br&gt;k=i-1" style="rounded=0;whiteSpace=wrap;html=1;" vertex="1" parent="1">
          <mxGeometry x="1370" y="290" width="120" height="60" as="geometry" />
        </mxCell>
        <mxCell id="r5tht3dNbgFcJSX3tWin-40" style="edgeStyle=orthogonalEdgeStyle;rounded=0;orthogonalLoop=1;jettySize=auto;html=1;exitX=1;exitY=0.5;exitDx=0;exitDy=0;" edge="1" parent="1" source="r5tht3dNbgFcJSX3tWin-37" target="r5tht3dNbgFcJSX3tWin-39">
          <mxGeometry relative="1" as="geometry" />
        </mxCell>
        <mxCell id="r5tht3dNbgFcJSX3tWin-44" value="True" style="edgeLabel;html=1;align=center;verticalAlign=middle;resizable=0;points=[];" vertex="1" connectable="0" parent="r5tht3dNbgFcJSX3tWin-40">
          <mxGeometry x="-0.0178" relative="1" as="geometry">
            <mxPoint as="offset" />
          </mxGeometry>
        </mxCell>
        <mxCell id="r5tht3dNbgFcJSX3tWin-42" style="edgeStyle=orthogonalEdgeStyle;rounded=0;orthogonalLoop=1;jettySize=auto;html=1;exitX=0.5;exitY=0;exitDx=0;exitDy=0;" edge="1" parent="1" source="r5tht3dNbgFcJSX3tWin-37" target="r5tht3dNbgFcJSX3tWin-41">
          <mxGeometry relative="1" as="geometry" />
        </mxCell>
        <mxCell id="r5tht3dNbgFcJSX3tWin-46" value="false" style="edgeLabel;html=1;align=center;verticalAlign=middle;resizable=0;points=[];" vertex="1" connectable="0" parent="r5tht3dNbgFcJSX3tWin-42">
          <mxGeometry x="-0.1333" y="-2" relative="1" as="geometry">
            <mxPoint as="offset" />
          </mxGeometry>
        </mxCell>
        <mxCell id="r5tht3dNbgFcJSX3tWin-37" value="k&amp;gt;=0&amp;amp;&amp;amp;key&amp;gt;numbers[k][j]" style="rhombus;whiteSpace=wrap;html=1;" vertex="1" parent="1">
          <mxGeometry x="1600" y="240" width="150" height="160" as="geometry" />
        </mxCell>
        <mxCell id="r5tht3dNbgFcJSX3tWin-51" style="edgeStyle=orthogonalEdgeStyle;rounded=0;orthogonalLoop=1;jettySize=auto;html=1;exitX=0.5;exitY=1;exitDx=0;exitDy=0;" edge="1" parent="1" source="r5tht3dNbgFcJSX3tWin-39">
          <mxGeometry relative="1" as="geometry">
            <mxPoint x="1520" y="320" as="targetPoint" />
            <Array as="points">
              <mxPoint x="1960" y="450" />
              <mxPoint x="1521" y="450" />
            </Array>
          </mxGeometry>
        </mxCell>
        <mxCell id="r5tht3dNbgFcJSX3tWin-39" value="numbers[k+1][j]=numbers[k][j]&lt;br&gt;k=k+" style="rounded=0;whiteSpace=wrap;html=1;" vertex="1" parent="1">
          <mxGeometry x="1900" y="290" width="120" height="60" as="geometry" />
        </mxCell>
        <mxCell id="r5tht3dNbgFcJSX3tWin-43" style="edgeStyle=orthogonalEdgeStyle;rounded=0;orthogonalLoop=1;jettySize=auto;html=1;exitX=0.5;exitY=0;exitDx=0;exitDy=0;" edge="1" parent="1" source="r5tht3dNbgFcJSX3tWin-41">
          <mxGeometry relative="1" as="geometry">
            <mxPoint x="1430" y="90" as="targetPoint" />
            <Array as="points">
              <mxPoint x="1675" y="90" />
            </Array>
          </mxGeometry>
        </mxCell>
        <mxCell id="r5tht3dNbgFcJSX3tWin-41" value="numbers[k+1][j]=key" style="rounded=0;whiteSpace=wrap;html=1;" vertex="1" parent="1">
          <mxGeometry x="1615" y="110" width="120" height="60" as="geometry" />
        </mxCell>
        <mxCell id="r5tht3dNbgFcJSX3tWin-47" value="choice" style="shape=parallelogram;perimeter=parallelogramPerimeter;whiteSpace=wrap;html=1;fixedSize=1;" vertex="1" parent="1">
          <mxGeometry x="1220" y="370" width="120" height="60" as="geometry" />
        </mxCell>
        <mxCell id="r5tht3dNbgFcJSX3tWin-52" value="Case 3:" style="text;html=1;align=center;verticalAlign=middle;resizable=0;points=[];autosize=1;strokeColor=none;fillColor=none;" vertex="1" parent="1">
          <mxGeometry x="1400" y="-42" width="60" height="30" as="geometry" />
        </mxCell>
        <mxCell id="r5tht3dNbgFcJSX3tWin-56" style="edgeStyle=orthogonalEdgeStyle;rounded=0;orthogonalLoop=1;jettySize=auto;html=1;exitX=0.5;exitY=1;exitDx=0;exitDy=0;" edge="1" parent="1" source="r5tht3dNbgFcJSX3tWin-53" target="r5tht3dNbgFcJSX3tWin-55">
          <mxGeometry relative="1" as="geometry" />
        </mxCell>
        <mxCell id="r5tht3dNbgFcJSX3tWin-53" value="Case 1:&lt;br&gt;case2:&lt;br&gt;case3:" style="rounded=0;whiteSpace=wrap;html=1;" vertex="1" parent="1">
          <mxGeometry x="60" y="390" width="120" height="60" as="geometry" />
        </mxCell>
        <mxCell id="r5tht3dNbgFcJSX3tWin-55" value="end" style="ellipse;whiteSpace=wrap;html=1;" vertex="1" parent="1">
          <mxGeometry x="60" y="520" width="120" height="80" as="geometry" />
        </mxCell>
      </root>
    </mxGraphModel>
  </diagram>
  <diagram id="hCGOxieAjwAedFGeAwcu" name="bt3 ss11">
    <mxGraphModel dx="794" dy="1625" grid="1" gridSize="10" guides="1" tooltips="1" connect="1" arrows="1" fold="1" page="1" pageScale="1" pageWidth="827" pageHeight="1169" math="0" shadow="0">
      <root>
        <mxCell id="0" />
        <mxCell id="1" parent="0" />
        <mxCell id="QzPcQI8ZQCjOrcdWG37q-3" style="edgeStyle=orthogonalEdgeStyle;rounded=0;orthogonalLoop=1;jettySize=auto;html=1;exitX=0.5;exitY=1;exitDx=0;exitDy=0;entryX=0.5;entryY=0;entryDx=0;entryDy=0;" edge="1" parent="1" source="QzPcQI8ZQCjOrcdWG37q-1" target="QzPcQI8ZQCjOrcdWG37q-2">
          <mxGeometry relative="1" as="geometry" />
        </mxCell>
        <mxCell id="QzPcQI8ZQCjOrcdWG37q-1" value="start" style="ellipse;whiteSpace=wrap;html=1;" vertex="1" parent="1">
          <mxGeometry x="50" y="10" width="120" height="80" as="geometry" />
        </mxCell>
        <mxCell id="n8iVWt_8NUn14Hr-hnI7-2" style="edgeStyle=orthogonalEdgeStyle;rounded=0;orthogonalLoop=1;jettySize=auto;html=1;exitX=0.5;exitY=1;exitDx=0;exitDy=0;entryX=0.5;entryY=0;entryDx=0;entryDy=0;" edge="1" parent="1" source="QzPcQI8ZQCjOrcdWG37q-2" target="n8iVWt_8NUn14Hr-hnI7-1">
          <mxGeometry relative="1" as="geometry" />
        </mxCell>
        <mxCell id="QzPcQI8ZQCjOrcdWG37q-2" value="n,MENU" style="shape=parallelogram;perimeter=parallelogramPerimeter;whiteSpace=wrap;html=1;fixedSize=1;" vertex="1" parent="1">
          <mxGeometry x="50" y="170" width="120" height="60" as="geometry" />
        </mxCell>
        <mxCell id="rsBv1lPIcPz4-FwNBxOP-2" style="edgeStyle=orthogonalEdgeStyle;rounded=0;orthogonalLoop=1;jettySize=auto;html=1;exitX=0.5;exitY=1;exitDx=0;exitDy=0;entryX=0.5;entryY=0;entryDx=0;entryDy=0;" edge="1" parent="1" source="n8iVWt_8NUn14Hr-hnI7-1" target="rsBv1lPIcPz4-FwNBxOP-1">
          <mxGeometry relative="1" as="geometry" />
        </mxCell>
        <mxCell id="n8iVWt_8NUn14Hr-hnI7-1" value="case1:&lt;br&gt;case2:&lt;br&gt;case3:" style="rounded=0;whiteSpace=wrap;html=1;" vertex="1" parent="1">
          <mxGeometry x="50" y="300" width="120" height="60" as="geometry" />
        </mxCell>
        <mxCell id="rsBv1lPIcPz4-FwNBxOP-1" value="end" style="ellipse;whiteSpace=wrap;html=1;" vertex="1" parent="1">
          <mxGeometry x="50" y="410" width="120" height="80" as="geometry" />
        </mxCell>
        <mxCell id="QBcDCcvM9RPsRb56sBED-2" style="edgeStyle=orthogonalEdgeStyle;rounded=0;orthogonalLoop=1;jettySize=auto;html=1;exitX=0.5;exitY=1;exitDx=0;exitDy=0;" edge="1" parent="1" source="fiLlGYRoLMQQgmBLNYtl-1" target="QBcDCcvM9RPsRb56sBED-1">
          <mxGeometry relative="1" as="geometry" />
        </mxCell>
        <mxCell id="fiLlGYRoLMQQgmBLNYtl-1" value="i=0" style="rounded=0;whiteSpace=wrap;html=1;" vertex="1" parent="1">
          <mxGeometry x="310" y="30" width="120" height="60" as="geometry" />
        </mxCell>
        <mxCell id="Pp5v849XHsMLvrSlPOyU-2" style="edgeStyle=orthogonalEdgeStyle;rounded=0;orthogonalLoop=1;jettySize=auto;html=1;exitX=0.5;exitY=1;exitDx=0;exitDy=0;" edge="1" parent="1" source="QBcDCcvM9RPsRb56sBED-1" target="Pp5v849XHsMLvrSlPOyU-1">
          <mxGeometry relative="1" as="geometry" />
        </mxCell>
        <mxCell id="QBcDCcvM9RPsRb56sBED-1" value="i&amp;lt;n" style="rhombus;whiteSpace=wrap;html=1;" vertex="1" parent="1">
          <mxGeometry x="330" y="140" width="80" height="80" as="geometry" />
        </mxCell>
        <mxCell id="Pp5v849XHsMLvrSlPOyU-1" value="numbers[i]" style="rounded=0;whiteSpace=wrap;html=1;" vertex="1" parent="1">
          <mxGeometry x="310" y="280" width="120" height="60" as="geometry" />
        </mxCell>
        <mxCell id="Pp5v849XHsMLvrSlPOyU-5" style="edgeStyle=orthogonalEdgeStyle;rounded=0;orthogonalLoop=1;jettySize=auto;html=1;exitX=0.5;exitY=1;exitDx=0;exitDy=0;" edge="1" parent="1" source="Pp5v849XHsMLvrSlPOyU-3" target="Pp5v849XHsMLvrSlPOyU-4">
          <mxGeometry relative="1" as="geometry" />
        </mxCell>
        <mxCell id="Pp5v849XHsMLvrSlPOyU-3" value="searchValue" style="shape=parallelogram;perimeter=parallelogramPerimeter;whiteSpace=wrap;html=1;fixedSize=1;" vertex="1" parent="1">
          <mxGeometry x="600" y="40" width="120" height="60" as="geometry" />
        </mxCell>
        <mxCell id="Pp5v849XHsMLvrSlPOyU-7" style="edgeStyle=orthogonalEdgeStyle;rounded=0;orthogonalLoop=1;jettySize=auto;html=1;exitX=0.5;exitY=1;exitDx=0;exitDy=0;entryX=0.5;entryY=0;entryDx=0;entryDy=0;" edge="1" parent="1" source="Pp5v849XHsMLvrSlPOyU-4" target="Pp5v849XHsMLvrSlPOyU-6">
          <mxGeometry relative="1" as="geometry" />
        </mxCell>
        <mxCell id="Pp5v849XHsMLvrSlPOyU-4" value="i=0" style="rounded=0;whiteSpace=wrap;html=1;" vertex="1" parent="1">
          <mxGeometry x="600" y="160" width="120" height="60" as="geometry" />
        </mxCell>
        <mxCell id="Pp5v849XHsMLvrSlPOyU-9" style="edgeStyle=orthogonalEdgeStyle;rounded=0;orthogonalLoop=1;jettySize=auto;html=1;exitX=1;exitY=0.5;exitDx=0;exitDy=0;" edge="1" parent="1" source="Pp5v849XHsMLvrSlPOyU-6" target="Pp5v849XHsMLvrSlPOyU-8">
          <mxGeometry relative="1" as="geometry" />
        </mxCell>
        <mxCell id="Pp5v849XHsMLvrSlPOyU-13" value="true" style="edgeLabel;html=1;align=center;verticalAlign=middle;resizable=0;points=[];" vertex="1" connectable="0" parent="Pp5v849XHsMLvrSlPOyU-9">
          <mxGeometry x="0.0083" y="-2" relative="1" as="geometry">
            <mxPoint as="offset" />
          </mxGeometry>
        </mxCell>
        <mxCell id="Pp5v849XHsMLvrSlPOyU-6" value="i&amp;lt;n" style="rhombus;whiteSpace=wrap;html=1;" vertex="1" parent="1">
          <mxGeometry x="620" y="290" width="80" height="80" as="geometry" />
        </mxCell>
        <mxCell id="Pp5v849XHsMLvrSlPOyU-11" style="edgeStyle=orthogonalEdgeStyle;rounded=0;orthogonalLoop=1;jettySize=auto;html=1;exitX=1;exitY=0.5;exitDx=0;exitDy=0;entryX=0;entryY=0.5;entryDx=0;entryDy=0;" edge="1" parent="1" source="Pp5v849XHsMLvrSlPOyU-8" target="Pp5v849XHsMLvrSlPOyU-10">
          <mxGeometry relative="1" as="geometry" />
        </mxCell>
        <mxCell id="Pp5v849XHsMLvrSlPOyU-12" value="true" style="edgeLabel;html=1;align=center;verticalAlign=middle;resizable=0;points=[];" vertex="1" connectable="0" parent="Pp5v849XHsMLvrSlPOyU-11">
          <mxGeometry x="-0.2718" relative="1" as="geometry">
            <mxPoint as="offset" />
          </mxGeometry>
        </mxCell>
        <mxCell id="Pp5v849XHsMLvrSlPOyU-14" style="edgeStyle=orthogonalEdgeStyle;rounded=0;orthogonalLoop=1;jettySize=auto;html=1;exitX=0.5;exitY=0;exitDx=0;exitDy=0;" edge="1" parent="1" source="Pp5v849XHsMLvrSlPOyU-8">
          <mxGeometry relative="1" as="geometry">
            <mxPoint x="660" y="240" as="targetPoint" />
            <Array as="points">
              <mxPoint x="820" y="240" />
            </Array>
          </mxGeometry>
        </mxCell>
        <mxCell id="Pp5v849XHsMLvrSlPOyU-15" value="false" style="edgeLabel;html=1;align=center;verticalAlign=middle;resizable=0;points=[];" vertex="1" connectable="0" parent="Pp5v849XHsMLvrSlPOyU-14">
          <mxGeometry x="0.0254" relative="1" as="geometry">
            <mxPoint as="offset" />
          </mxGeometry>
        </mxCell>
        <mxCell id="Pp5v849XHsMLvrSlPOyU-8" value="numbers[i]=&lt;br&gt;searchValue" style="rhombus;whiteSpace=wrap;html=1;" vertex="1" parent="1">
          <mxGeometry x="780" y="290" width="80" height="80" as="geometry" />
        </mxCell>
        <mxCell id="Pp5v849XHsMLvrSlPOyU-10" value="break" style="rounded=0;whiteSpace=wrap;html=1;" vertex="1" parent="1">
          <mxGeometry x="990" y="300" width="120" height="60" as="geometry" />
        </mxCell>
        <mxCell id="Pp5v849XHsMLvrSlPOyU-16" value="Case 2:" style="text;html=1;align=center;verticalAlign=middle;resizable=0;points=[];autosize=1;strokeColor=none;fillColor=none;" vertex="1" parent="1">
          <mxGeometry x="630" y="-12" width="60" height="30" as="geometry" />
        </mxCell>
        <mxCell id="Pp5v849XHsMLvrSlPOyU-19" style="edgeStyle=orthogonalEdgeStyle;rounded=0;orthogonalLoop=1;jettySize=auto;html=1;exitX=0.5;exitY=1;exitDx=0;exitDy=0;" edge="1" parent="1" source="Pp5v849XHsMLvrSlPOyU-17" target="Pp5v849XHsMLvrSlPOyU-18">
          <mxGeometry relative="1" as="geometry" />
        </mxCell>
        <mxCell id="Pp5v849XHsMLvrSlPOyU-17" value="searchValue" style="shape=parallelogram;perimeter=parallelogramPerimeter;whiteSpace=wrap;html=1;fixedSize=1;" vertex="1" parent="1">
          <mxGeometry x="1181" y="-220" width="120" height="60" as="geometry" />
        </mxCell>
        <mxCell id="Pp5v849XHsMLvrSlPOyU-21" style="edgeStyle=orthogonalEdgeStyle;rounded=0;orthogonalLoop=1;jettySize=auto;html=1;exitX=0.5;exitY=1;exitDx=0;exitDy=0;entryX=0.5;entryY=0;entryDx=0;entryDy=0;" edge="1" parent="1" source="Pp5v849XHsMLvrSlPOyU-18" target="Pp5v849XHsMLvrSlPOyU-20">
          <mxGeometry relative="1" as="geometry" />
        </mxCell>
        <mxCell id="Pp5v849XHsMLvrSlPOyU-18" value="start,end" style="rounded=0;whiteSpace=wrap;html=1;" vertex="1" parent="1">
          <mxGeometry x="1181" y="-90" width="120" height="60" as="geometry" />
        </mxCell>
        <mxCell id="Pp5v849XHsMLvrSlPOyU-23" style="edgeStyle=orthogonalEdgeStyle;rounded=0;orthogonalLoop=1;jettySize=auto;html=1;exitX=1;exitY=0.5;exitDx=0;exitDy=0;" edge="1" parent="1" source="Pp5v849XHsMLvrSlPOyU-20" target="Pp5v849XHsMLvrSlPOyU-22">
          <mxGeometry relative="1" as="geometry" />
        </mxCell>
        <mxCell id="Pp5v849XHsMLvrSlPOyU-38" value="true" style="edgeLabel;html=1;align=center;verticalAlign=middle;resizable=0;points=[];" vertex="1" connectable="0" parent="Pp5v849XHsMLvrSlPOyU-23">
          <mxGeometry x="-0.2947" y="-1" relative="1" as="geometry">
            <mxPoint as="offset" />
          </mxGeometry>
        </mxCell>
        <mxCell id="Pp5v849XHsMLvrSlPOyU-20" value="start &amp;lt;= end" style="rhombus;whiteSpace=wrap;html=1;" vertex="1" parent="1">
          <mxGeometry x="1201" y="220" width="80" height="80" as="geometry" />
        </mxCell>
        <mxCell id="Pp5v849XHsMLvrSlPOyU-25" style="edgeStyle=orthogonalEdgeStyle;rounded=0;orthogonalLoop=1;jettySize=auto;html=1;exitX=1;exitY=0.5;exitDx=0;exitDy=0;entryX=0;entryY=0.5;entryDx=0;entryDy=0;" edge="1" parent="1" source="Pp5v849XHsMLvrSlPOyU-22" target="Pp5v849XHsMLvrSlPOyU-24">
          <mxGeometry relative="1" as="geometry" />
        </mxCell>
        <mxCell id="Pp5v849XHsMLvrSlPOyU-39" value="false" style="edgeLabel;html=1;align=center;verticalAlign=middle;resizable=0;points=[];" vertex="1" connectable="0" parent="Pp5v849XHsMLvrSlPOyU-25">
          <mxGeometry x="-0.0889" y="1" relative="1" as="geometry">
            <mxPoint as="offset" />
          </mxGeometry>
        </mxCell>
        <mxCell id="Pp5v849XHsMLvrSlPOyU-22" value="mid=(start+end)\2" style="rounded=0;whiteSpace=wrap;html=1;" vertex="1" parent="1">
          <mxGeometry x="1350" y="230" width="120" height="60" as="geometry" />
        </mxCell>
        <mxCell id="Pp5v849XHsMLvrSlPOyU-27" style="edgeStyle=orthogonalEdgeStyle;rounded=0;orthogonalLoop=1;jettySize=auto;html=1;exitX=1;exitY=0.5;exitDx=0;exitDy=0;" edge="1" parent="1" source="Pp5v849XHsMLvrSlPOyU-24" target="Pp5v849XHsMLvrSlPOyU-26">
          <mxGeometry relative="1" as="geometry" />
        </mxCell>
        <mxCell id="Pp5v849XHsMLvrSlPOyU-40" value="false" style="edgeLabel;html=1;align=center;verticalAlign=middle;resizable=0;points=[];" vertex="1" connectable="0" parent="Pp5v849XHsMLvrSlPOyU-27">
          <mxGeometry x="-0.1619" y="1" relative="1" as="geometry">
            <mxPoint as="offset" />
          </mxGeometry>
        </mxCell>
        <mxCell id="Pp5v849XHsMLvrSlPOyU-31" style="edgeStyle=orthogonalEdgeStyle;rounded=0;orthogonalLoop=1;jettySize=auto;html=1;exitX=0.5;exitY=1;exitDx=0;exitDy=0;entryX=0.5;entryY=0;entryDx=0;entryDy=0;" edge="1" parent="1" source="Pp5v849XHsMLvrSlPOyU-24" target="Pp5v849XHsMLvrSlPOyU-30">
          <mxGeometry relative="1" as="geometry" />
        </mxCell>
        <mxCell id="Pp5v849XHsMLvrSlPOyU-37" value="true" style="edgeLabel;html=1;align=center;verticalAlign=middle;resizable=0;points=[];" vertex="1" connectable="0" parent="Pp5v849XHsMLvrSlPOyU-31">
          <mxGeometry x="-0.0917" y="-1" relative="1" as="geometry">
            <mxPoint as="offset" />
          </mxGeometry>
        </mxCell>
        <mxCell id="Pp5v849XHsMLvrSlPOyU-33" style="edgeStyle=orthogonalEdgeStyle;rounded=0;orthogonalLoop=1;jettySize=auto;html=1;exitX=0.5;exitY=0;exitDx=0;exitDy=0;" edge="1" parent="1" source="Pp5v849XHsMLvrSlPOyU-24" target="Pp5v849XHsMLvrSlPOyU-32">
          <mxGeometry relative="1" as="geometry" />
        </mxCell>
        <mxCell id="Pp5v849XHsMLvrSlPOyU-34" value="true" style="edgeLabel;html=1;align=center;verticalAlign=middle;resizable=0;points=[];" vertex="1" connectable="0" parent="Pp5v849XHsMLvrSlPOyU-33">
          <mxGeometry x="-0.0083" relative="1" as="geometry">
            <mxPoint as="offset" />
          </mxGeometry>
        </mxCell>
        <mxCell id="Pp5v849XHsMLvrSlPOyU-24" value="numbers[mid]==searchValue" style="rhombus;whiteSpace=wrap;html=1;" vertex="1" parent="1">
          <mxGeometry x="1530" y="190" width="160" height="140" as="geometry" />
        </mxCell>
        <mxCell id="Pp5v849XHsMLvrSlPOyU-29" style="edgeStyle=orthogonalEdgeStyle;rounded=0;orthogonalLoop=1;jettySize=auto;html=1;exitX=1;exitY=0.5;exitDx=0;exitDy=0;" edge="1" parent="1" source="Pp5v849XHsMLvrSlPOyU-26" target="Pp5v849XHsMLvrSlPOyU-28">
          <mxGeometry relative="1" as="geometry" />
        </mxCell>
        <mxCell id="Pp5v849XHsMLvrSlPOyU-35" style="edgeStyle=orthogonalEdgeStyle;rounded=0;orthogonalLoop=1;jettySize=auto;html=1;exitX=0.5;exitY=0;exitDx=0;exitDy=0;" edge="1" parent="1" source="Pp5v849XHsMLvrSlPOyU-26">
          <mxGeometry relative="1" as="geometry">
            <mxPoint x="1240" as="targetPoint" />
            <Array as="points">
              <mxPoint x="1825" />
            </Array>
          </mxGeometry>
        </mxCell>
        <mxCell id="Pp5v849XHsMLvrSlPOyU-26" value="numbers[mid]&amp;lt;&lt;br&gt;searchValue" style="rhombus;whiteSpace=wrap;html=1;" vertex="1" parent="1">
          <mxGeometry x="1760" y="205" width="130" height="110" as="geometry" />
        </mxCell>
        <mxCell id="Pp5v849XHsMLvrSlPOyU-28" value="end = mid-1" style="rounded=0;whiteSpace=wrap;html=1;" vertex="1" parent="1">
          <mxGeometry x="1980" y="230" width="120" height="60" as="geometry" />
        </mxCell>
        <mxCell id="Pp5v849XHsMLvrSlPOyU-30" value="break" style="rounded=0;whiteSpace=wrap;html=1;" vertex="1" parent="1">
          <mxGeometry x="1550" y="410" width="120" height="60" as="geometry" />
        </mxCell>
        <mxCell id="Pp5v849XHsMLvrSlPOyU-36" style="edgeStyle=orthogonalEdgeStyle;rounded=0;orthogonalLoop=1;jettySize=auto;html=1;exitX=0;exitY=0.5;exitDx=0;exitDy=0;" edge="1" parent="1" source="Pp5v849XHsMLvrSlPOyU-32">
          <mxGeometry relative="1" as="geometry">
            <mxPoint x="1240" y="80" as="targetPoint" />
          </mxGeometry>
        </mxCell>
        <mxCell id="Pp5v849XHsMLvrSlPOyU-32" value="start=mid+1" style="rounded=0;whiteSpace=wrap;html=1;" vertex="1" parent="1">
          <mxGeometry x="1550" y="50" width="120" height="60" as="geometry" />
        </mxCell>
        <mxCell id="Pp5v849XHsMLvrSlPOyU-41" value="case 3:" style="text;html=1;align=center;verticalAlign=middle;resizable=0;points=[];autosize=1;strokeColor=none;fillColor=none;" vertex="1" parent="1">
          <mxGeometry x="1200" y="-272" width="60" height="30" as="geometry" />
        </mxCell>
        <mxCell id="Pp5v849XHsMLvrSlPOyU-42" value="case 1:" style="text;html=1;align=center;verticalAlign=middle;resizable=0;points=[];autosize=1;strokeColor=none;fillColor=none;" vertex="1" parent="1">
          <mxGeometry x="310" y="-22" width="60" height="30" as="geometry" />
        </mxCell>
      </root>
    </mxGraphModel>
  </diagram>
</mxfile>
